<?xml version="1.0" encoding="UTF-8"?>
<!DOCTYPE svg PUBLIC "-//W3C//DTD SVG 1.1//EN" "http://www.w3.org/Graphics/SVG/1.1/DTD/svg11.dtd">
<!-- Creator: CorelDRAW 2020 (64-Bit) -->
<svg xmlns="http://www.w3.org/2000/svg" xml:space="preserve" width="14.732mm" height="2.2013mm" version="1.1" style="shape-rendering:geometricPrecision; text-rendering:geometricPrecision; image-rendering:optimizeQuality; fill-rule:evenodd; clip-rule:evenodd"
viewBox="0 0 382.53 57.16"
 xmlns:xlink="http://www.w3.org/1999/xlink"
 xmlns:xodm="http://www.corel.com/coreldraw/odm/2003">
 <defs>
  <style type="text/css">
   <![CDATA[
    .fil0 {fill:#4565AD;fill-rule:nonzero}
    .fil1 {fill:#F9B410;fill-rule:nonzero}
    .fil2 {fill:#142142;fill-rule:nonzero}
   ]]>
  </style>
 </defs>
 <g id="Warstwa_x0020_1">
  <metadata id="CorelCorpID_0Corel-Layer"/>
  <path class="fil0" d="M54.24 27.89c0,15.4 -12.14,27.89 -27.12,27.89 -14.98,0 -27.12,-12.49 -27.12,-27.89 0,-15.4 12.14,-27.89 27.12,-27.89 14.97,0 27.12,12.49 27.12,27.89z"/>
  <path class="fil1" d="M102.77 27.89c0,15.4 -12.14,27.89 -27.12,27.89 -14.98,0 -27.12,-12.49 -27.12,-27.89 0,-15.4 12.14,-27.89 27.12,-27.89 14.98,0 27.12,12.49 27.12,27.89z"/>
  <path class="fil0" d="M54.24 27.89c0,15.4 -12.14,27.89 -27.12,27.89 -14.98,0 -27.12,-12.49 -27.12,-27.89 0,-15.4 12.14,-27.89 27.12,-27.89 14.97,0 27.12,12.49 27.12,27.89z"/>
  <path class="fil2" d="M144.7 12.47l0 21.51c0,1.17 0.15,1.97 0.43,2.39 0.29,0.43 0.77,0.64 1.44,0.64 0.73,0 1.24,-0.22 1.55,-0.66 0.3,-0.44 0.45,-1.23 0.45,-2.37l0 -21.51 9.2 0 0 21.51c0,1.17 0.15,1.97 0.42,2.39 0.28,0.43 0.76,0.64 1.44,0.64 0.73,0 1.24,-0.22 1.55,-0.66 0.31,-0.44 0.46,-1.23 0.46,-2.37l0 -21.51 9.11 0 0 21.28c0,2.25 -0.11,3.95 -0.34,5.12 -0.24,1.17 -0.61,2.19 -1.12,3.07 -0.85,1.44 -1.95,2.54 -3.32,3.3 -1.36,0.76 -2.91,1.14 -4.64,1.14 -1.72,0 -3.28,-0.42 -4.68,-1.26 -1.4,-0.85 -2.54,-2.04 -3.43,-3.59 -0.9,1.56 -2.06,2.77 -3.46,3.6 -1.4,0.83 -2.96,1.25 -4.68,1.25 -1.52,0 -2.91,-0.29 -4.15,-0.86 -1.24,-0.57 -2.29,-1.43 -3.15,-2.55 -0.78,-0.99 -1.34,-2.14 -1.68,-3.46 -0.33,-1.32 -0.5,-3.24 -0.5,-5.76l0 -21.28 9.11 0z"/>
  <path id="1" class="fil2" d="M183.89 35.71l0 10.02 -8.88 0 0 -11.58c0,-2.61 0.23,-4.65 0.71,-6.11 0.47,-1.47 1.28,-2.77 2.43,-3.91 0.86,-0.88 1.86,-1.56 3.01,-2.06 1.15,-0.49 2.3,-0.74 3.46,-0.74 0.56,0 1.11,0.02 1.67,0.07 0.55,0.05 1.09,0.11 1.6,0.2l0 9.56c-0.11,-0.02 -0.26,-0.03 -0.47,-0.06 -0.49,-0.08 -0.79,-0.12 -0.93,-0.12 -0.96,0 -1.64,0.32 -2.03,0.96 -0.38,0.64 -0.58,1.89 -0.58,3.77z"/>
  <path id="2" class="fil2" d="M214.23 45.73l-8.65 0 0 -9.52c0,-2.25 -0.27,-3.82 -0.8,-4.72 -0.53,-0.9 -1.41,-1.35 -2.64,-1.35 -0.94,0 -1.74,0.33 -2.4,1.01 -0.66,0.68 -0.98,1.49 -0.98,2.45 0,0.99 0.32,1.81 0.97,2.46 0.64,0.65 1.45,0.98 2.41,0.98 0.24,0 0.49,-0.03 0.77,-0.1 0.28,-0.07 0.6,-0.17 0.96,-0.31l0 9.23 -0.15 0.02c-0.8,0.05 -1.37,0.07 -1.72,0.07 -3.35,0 -6.19,-1.19 -8.51,-3.58 -2.33,-2.39 -3.49,-5.31 -3.49,-8.77 0,-1.64 0.3,-3.21 0.89,-4.69 0.59,-1.49 1.45,-2.81 2.58,-3.94 1.14,-1.19 2.44,-2.09 3.91,-2.71 1.47,-0.62 3.02,-0.93 4.65,-0.93 2.41,0 4.56,0.62 6.47,1.84 1.91,1.22 3.35,2.92 4.32,5.07 0.49,1.13 0.84,2.31 1.08,3.52 0.23,1.21 0.34,2.71 0.34,4.49l0 1.73 0 7.74z"/>
  <path id="3" class="fil2" d="M217.82 57.16l0 -20.72c0,-1.48 0.05,-2.66 0.15,-3.54 0.1,-0.89 0.26,-1.71 0.5,-2.47 0.79,-2.84 2.2,-5.06 4.25,-6.67 2.05,-1.61 4.48,-2.42 7.31,-2.42 1.63,0 3.19,0.31 4.66,0.93 1.48,0.62 2.79,1.52 3.95,2.71 1.11,1.13 1.97,2.45 2.56,3.94 0.59,1.48 0.89,3.05 0.89,4.69 0,3.45 -1.16,6.37 -3.48,8.76 -2.32,2.39 -5.17,3.59 -8.54,3.59 -0.36,0 -0.92,-0.02 -1.71,-0.07l-0.16 -0.02 0 -9.23c0.36,0.14 0.68,0.24 0.95,0.31 0.27,0.07 0.54,0.1 0.79,0.1 0.97,0 1.77,-0.33 2.41,-0.98 0.64,-0.65 0.96,-1.48 0.96,-2.46 0,-0.96 -0.33,-1.77 -0.99,-2.45 -0.66,-0.68 -1.45,-1.01 -2.38,-1.01 -1.24,0 -2.13,0.45 -2.66,1.35 -0.54,0.89 -0.8,2.46 -0.8,4.72l0 20.94 -8.65 0z"/>
  <path id="4" class="fil2" d="M270.73 45.73l0 -21.51c0,-1.17 -0.15,-1.97 -0.43,-2.39 -0.28,-0.43 -0.76,-0.64 -1.44,-0.64 -0.73,0 -1.25,0.22 -1.55,0.66 -0.3,0.44 -0.45,1.23 -0.45,2.37l0 21.51 -9.2 0 0 -21.51c0,-1.17 -0.14,-1.97 -0.43,-2.39 -0.28,-0.43 -0.76,-0.64 -1.44,-0.64 -0.73,0 -1.25,0.22 -1.55,0.66 -0.3,0.44 -0.45,1.23 -0.45,2.37l0 21.51 -9.11 0 0 -21.28c0,-2.25 0.11,-3.95 0.33,-5.12 0.22,-1.17 0.59,-2.19 1.12,-3.07 0.84,-1.43 1.95,-2.53 3.32,-3.29 1.37,-0.77 2.92,-1.15 4.66,-1.15 1.72,0 3.28,0.42 4.69,1.25 1.4,0.83 2.56,2.04 3.46,3.6 0.92,-1.58 2.07,-2.78 3.46,-3.61 1.39,-0.83 2.94,-1.25 4.66,-1.25 1.53,0 2.92,0.29 4.17,0.86 1.25,0.57 2.31,1.43 3.16,2.55 0.76,0.97 1.3,2.11 1.63,3.39 0.33,1.29 0.5,3.24 0.5,5.83l0 21.28 -9.11 0z"/>
  <path id="5" class="fil2" d="M306.61 45.73l-8.65 0 0 -9.52c0,-2.25 -0.27,-3.82 -0.8,-4.72 -0.53,-0.9 -1.41,-1.35 -2.64,-1.35 -0.94,0 -1.74,0.33 -2.4,1.01 -0.66,0.68 -0.98,1.49 -0.98,2.45 0,0.99 0.32,1.81 0.97,2.46 0.64,0.65 1.45,0.98 2.41,0.98 0.24,0 0.49,-0.03 0.77,-0.1 0.28,-0.07 0.6,-0.17 0.96,-0.31l0 9.23 -0.15 0.02c-0.8,0.05 -1.37,0.07 -1.72,0.07 -3.35,0 -6.19,-1.19 -8.51,-3.58 -2.33,-2.39 -3.49,-5.31 -3.49,-8.77 0,-1.64 0.3,-3.21 0.89,-4.69 0.59,-1.49 1.45,-2.81 2.58,-3.94 1.14,-1.19 2.44,-2.09 3.91,-2.71 1.47,-0.62 3.02,-0.93 4.65,-0.93 2.41,0 4.56,0.62 6.47,1.84 1.91,1.22 3.35,2.92 4.32,5.07 0.49,1.13 0.84,2.31 1.08,3.52 0.23,1.21 0.34,2.71 0.34,4.49l0 1.73 0 7.74z"/>
  <path id="6" class="fil2" d="M308.83 45.64l0 -9.47c1.68,0 2.85,-0.29 3.47,-0.85 0.62,-0.57 0.98,-1.87 1.09,-3.89 0.19,-3.18 1.02,-5.54 2.49,-7.1 1.47,-1.56 3.61,-2.34 6.41,-2.34l3.45 0 0 9.52c-0.06,0 -0.14,-0.01 -0.26,-0.02 -0.11,-0.02 -0.19,-0.02 -0.23,-0.02 -0.52,0 -0.97,0.09 -1.35,0.29 -0.37,0.19 -0.68,0.47 -0.9,0.83 -0.34,0.56 -0.56,1.46 -0.64,2.71 -0.08,1.25 -0.2,2.19 -0.36,2.81 -0.61,2.32 -1.9,4.18 -3.88,5.56 -1.98,1.38 -4.36,2.07 -7.13,2.07 -0.4,0 -1.06,-0.03 -1.99,-0.09l-0.16 0z"/>
  <path id="7" class="fil2" d="M340.63 32.02l-3.82 0c-0.03,0.11 -0.05,0.22 -0.05,0.33 -0.01,0.12 -0.01,0.29 -0.01,0.51 0,1.29 0.28,2.27 0.84,2.93 0.55,0.66 1.4,0.99 2.51,0.99l0.54 0 0 9.59c-0.15,0.03 -0.3,0.05 -0.47,0.06 -0.16,0.01 -0.41,0.01 -0.75,0.01 -3.4,0 -6.16,-1.19 -8.29,-3.56 -2.13,-2.38 -3.19,-5.49 -3.19,-9.33l0 -20.42 8.88 0 0 8.86 3.82 0 0 10.03z"/>
  <path id="8" class="fil2" d="M362.99 43.45c-1.21,0.99 -2.47,1.72 -3.78,2.21 -1.31,0.49 -2.7,0.73 -4.18,0.73 -1.19,0 -2.36,-0.18 -3.52,-0.55 -1.16,-0.37 -2.25,-0.91 -3.27,-1.62 -1.72,-1.16 -3.05,-2.64 -4,-4.46 -0.95,-1.81 -1.43,-3.78 -1.43,-5.88 0,-1.66 0.31,-3.24 0.93,-4.78 0.62,-1.52 1.51,-2.87 2.66,-4.04 1.18,-1.22 2.51,-2.14 3.99,-2.78 1.48,-0.64 3.02,-0.96 4.62,-0.96 3.57,0 6.5,1.25 8.8,3.75 2.3,2.51 3.45,5.73 3.45,9.7l0 0.51 -12.8 0c-0.4,0 -0.7,-0.18 -0.89,-0.53 -0.2,-0.35 -0.3,-0.9 -0.3,-1.66 0,-0.76 0.1,-1.33 0.3,-1.69 0.19,-0.37 0.49,-0.55 0.89,-0.55l3.87 0 0 -0.09c0,-0.78 -0.27,-1.41 -0.81,-1.87 -0.54,-0.46 -1.27,-0.69 -2.19,-0.69 -1.16,0 -2.09,0.48 -2.8,1.44 -0.71,0.96 -1.07,2.23 -1.07,3.82 0,1.66 0.32,2.97 0.98,3.91 0.65,0.94 1.56,1.42 2.72,1.42 0.55,0 1.09,-0.16 1.65,-0.46 0.55,-0.31 0.94,-0.7 1.18,-1.17l4.99 6.3z"/>
  <path id="9" class="fil2" d="M378.52 35.71l0 10.02 -8.88 0 0 -11.58c0,-2.61 0.23,-4.65 0.71,-6.11 0.47,-1.47 1.29,-2.77 2.43,-3.91 0.86,-0.88 1.86,-1.56 3.01,-2.06 1.15,-0.49 2.3,-0.74 3.46,-0.74 0.56,0 1.12,0.02 1.67,0.07 0.55,0.05 1.09,0.11 1.6,0.2l0 9.56c-0.11,-0.02 -0.26,-0.03 -0.47,-0.06 -0.49,-0.08 -0.79,-0.12 -0.93,-0.12 -0.96,0 -1.64,0.32 -2.03,0.96 -0.39,0.64 -0.58,1.89 -0.58,3.77z"/>
 </g>
</svg>
